<?xml version="1.0" standalone="no"?>
<!DOCTYPE svg PUBLIC "-//W3C//DTD SVG 20010904//EN"
 "http://www.w3.org/TR/2001/REC-SVG-20010904/DTD/svg10.dtd">
<svg version="1.0" xmlns="http://www.w3.org/2000/svg"
 width="640.000000pt" height="640.000000pt" viewBox="0 0 640.000000 640.000000"
 preserveAspectRatio="xMidYMid meet">
<metadata>
Created by potrace 1.14, written by Peter Selinger 2001-2017
</metadata>
<g transform="translate(0.000000,640.000000) scale(0.100000,-0.100000)"
fill="#000000" stroke="none">
<path d="M3099 6393 c-1 -5 -1 -11 -1 -14 1 -4 -22 -7 -51 -8 -78 -3 -178 -12
-272 -25 -22 -3 -58 -8 -80 -11 -23 -3 -52 -8 -65 -11 -33 -7 -70 -14 -98 -19
-12 -2 -30 -6 -40 -9 -9 -3 -28 -7 -42 -10 -32 -5 -199 -52 -270 -76 -165 -54
-401 -160 -559 -253 -47 -27 -95 -55 -106 -61 -46 -25 -217 -144 -315 -220
-125 -96 -370 -339 -495 -489 -87 -106 -209 -297 -235 -369 -8 -20 -17 -35
-22 -32 -4 3 -5 -3 -1 -12 4 -12 3 -15 -6 -10 -6 4 -11 4 -10 -1 3 -17 -1 -32
-13 -45 -50 -52 -200 -378 -260 -563 -52 -163 -107 -409 -123 -560 -4 -33 -9
-71 -12 -85 -9 -44 -11 -522 -2 -595 5 -38 14 -110 20 -160 16 -126 61 -338
104 -485 89 -310 307 -742 497 -988 37 -48 86 -113 108 -145 145 -204 640
-606 941 -765 188 -99 511 -224 714 -276 189 -48 423 -63 475 -31 6 3 10 -4
10 -17 0 -19 -2 -20 -11 -8 -9 13 -10 13 -6 0 2 -8 8 -15 13 -16 5 0 18 -5 29
-10 25 -11 438 -12 558 -1 488 44 984 210 1419 477 40 24 75 47 78 50 3 4 41
31 85 60 44 30 85 60 91 68 7 9 16 12 24 7 8 -5 11 -4 7 2 -3 5 2 16 11 24 9
8 44 37 77 64 33 28 68 59 77 70 15 17 19 18 29 5 9 -13 10 -13 6 1 -3 10 28
50 91 115 54 55 114 120 136 146 21 27 42 45 47 42 5 -3 8 -1 7 4 -5 18 41 72
57 66 8 -4 15 -1 15 6 0 6 -4 8 -10 5 -15 -9 -12 11 3 24 8 6 18 7 22 3 5 -4
5 -1 0 7 -4 7 -3 16 3 20 5 3 18 20 28 37 54 87 136 204 145 204 6 0 8 4 5 9
-10 15 27 72 43 66 11 -5 12 -3 1 10 -11 14 -7 19 12 16 4 0 12 9 18 22 11 21
10 21 -4 3 -12 -15 -16 -16 -16 -5 0 8 8 24 18 35 18 19 22 26 22 42 0 4 5 0
10 -8 7 -11 9 -7 7 15 -1 19 2 29 10 28 8 -2 10 4 6 14 -4 9 -2 14 4 10 5 -3
9 4 9 16 -1 13 4 21 12 19 8 -1 10 2 7 8 -9 14 15 71 26 64 5 -3 6 3 2 12 -4
11 -3 15 4 11 7 -4 10 0 9 10 -4 23 13 73 25 73 4 0 5 7 2 17 -4 9 -2 14 3 10
6 -3 16 4 24 16 12 20 12 21 -3 8 -15 -12 -16 -10 -6 19 9 24 14 29 21 18 7
-9 8 -8 4 6 -4 11 -1 23 6 28 11 6 10 8 0 8 -7 0 -10 5 -7 10 4 6 12 7 18 3 7
-4 5 2 -3 12 -8 10 -10 16 -4 12 7 -4 15 0 18 9 4 9 2 13 -5 8 -7 -4 -10 -1
-7 7 3 8 10 13 15 12 6 -1 8 10 5 24 -3 18 1 30 13 40 11 7 14 13 8 13 -6 0
-10 6 -9 12 16 78 19 87 30 81 6 -4 4 2 -4 12 -14 17 -13 18 3 12 9 -3 17 -2
17 3 0 6 -4 10 -10 10 -5 0 -7 15 -4 33 3 17 7 46 9 62 3 17 7 44 9 60 3 17 5
33 5 38 1 4 6 7 12 7 5 0 7 -4 4 -10 -3 -5 -2 -10 3 -10 5 0 14 18 20 40 5 22
6 37 1 34 -5 -3 -9 -14 -9 -25 0 -10 -5 -19 -11 -19 -7 0 -8 7 -4 18 4 9 10
28 13 42 3 14 10 28 15 32 14 8 18 40 5 32 -6 -4 -5 2 1 15 7 11 9 21 5 21 -3
0 0 8 7 17 12 14 12 16 0 8 -11 -6 -12 -5 -5 6 10 16 11 22 21 114 10 90 10
427 0 530 -42 439 -151 817 -345 1200 -134 265 -327 539 -491 700 -6 6 -51 52
-101 103 -49 50 -93 92 -98 92 -4 0 -13 9 -20 20 -7 12 -18 18 -24 14 -6 -4
-8 -3 -5 3 3 5 -3 17 -14 26 -10 9 -19 13 -19 9 0 -4 -5 1 -11 11 -6 9 -15 14
-21 11 -6 -4 -8 -3 -5 3 4 6 -3 19 -16 29 -21 19 -21 19 -7 -1 8 -11 -3 -3
-23 18 -21 20 -43 34 -49 31 -6 -4 -9 -3 -6 2 3 5 0 15 -8 22 -8 7 -14 10 -14
6 0 -3 -8 2 -17 13 -10 10 -16 14 -13 8 3 -6 -6 1 -19 15 -13 14 -20 18 -15
10 4 -8 -6 0 -23 18 -32 33 -49 42 -38 20 4 -7 -3 -2 -14 11 -12 13 -21 20
-21 15 0 -4 -7 1 -16 12 -8 10 -13 12 -9 4 4 -8 -3 -4 -15 10 -12 14 -19 18
-15 10 6 -13 5 -13 -7 0 -7 8 -24 24 -38 35 -23 19 -24 19 -10 1 15 -19 14
-19 -12 -2 -16 10 -28 23 -28 28 0 5 -4 6 -10 3 -5 -3 -10 -1 -10 5 0 6 -4 8
-10 5 -5 -3 -10 -1 -10 5 0 7 -6 10 -13 7 -7 -3 -24 4 -38 15 -13 11 -18 17
-11 13 6 -3 12 -4 12 -1 0 3 -10 10 -21 17 -15 8 -19 8 -15 0 4 -6 3 -11 -2
-11 -6 0 -13 7 -16 16 -4 9 -13 14 -21 10 -9 -3 -15 0 -15 8 0 8 -7 17 -16 20
-15 6 -15 4 -3 -10 13 -16 12 -16 -17 -1 -17 9 -34 24 -38 33 -5 13 -9 14 -20
5 -11 -9 -16 -9 -22 0 -5 8 -3 9 6 4 8 -5 11 -4 7 3 -4 5 -16 8 -27 5 -12 -3
-22 1 -26 10 -3 9 -12 13 -21 10 -10 -4 -14 -2 -10 4 8 13 -14 23 -49 23 -17
0 -23 4 -18 13 4 6 4 9 -1 5 -4 -4 -13 -4 -19 1 -20 15 -48 22 -40 9 9 -15
-14 -1 -44 25 -16 15 -25 18 -33 10 -13 -13 -72 4 -63 18 3 5 -2 6 -11 3 -9
-4 -22 1 -31 12 -14 18 -14 18 -8 -1 6 -18 5 -18 -15 3 -12 12 -27 22 -34 21
-9 0 -9 -2 1 -6 6 -2 9 -10 6 -15 -4 -6 -2 -8 3 -5 6 4 14 0 17 -8 4 -11 -4
-10 -33 7 -22 12 -39 27 -38 32 3 14 -25 15 -42 2 -12 -9 -13 -7 -9 5 5 14 1
16 -28 12 -25 -3 -42 1 -56 14 -12 10 -18 12 -14 6 4 -7 2 -13 -3 -13 -6 0
-11 4 -11 10 0 5 -7 6 -17 3 -12 -5 -14 -3 -8 8 7 11 5 11 -10 -1 -14 -11 -17
-11 -11 -1 7 10 3 12 -14 6 -17 -6 -21 -4 -14 6 6 12 5 12 -8 1 -12 -10 -18
-9 -28 3 -7 8 -20 15 -29 14 -12 0 -12 -2 4 -10 15 -6 11 -7 -15 -3 -19 4 -39
9 -45 12 -5 3 -24 5 -42 3 -22 -2 -33 2 -33 11 0 8 -3 9 -8 3 -10 -14 -32 -17
-32 -4 0 6 -6 9 -14 6 -7 -3 -18 -1 -24 5 -6 6 -19 7 -29 3 -10 -4 -43 -6 -73
-5 -30 1 -75 3 -100 4 -25 1 -50 4 -56 8 -6 4 -14 4 -18 1 -11 -12 -70 -10
-78 1 -5 7 -8 7 -8 -1 0 -16 -26 -17 -36 -1 -5 8 -2 9 10 5 10 -4 15 -3 11 3
-7 12 -24 13 -26 3z m398 -29 c-3 -3 -12 -4 -19 -1 -8 3 -5 6 6 6 11 1 17 -2
13 -5z m513 -90 c0 -8 -19 -13 -24 -6 -3 5 1 9 9 9 8 0 15 -2 15 -3z m234 -72
c3 -5 -1 -9 -9 -9 -8 0 -15 4 -15 9 0 4 4 8 9 8 6 0 12 -4 15 -8z m-43 -49
c13 -16 12 -17 -3 -4 -10 7 -18 15 -18 17 0 8 8 3 21 -13z m40 -30 c13 -16 12
-17 -3 -4 -10 7 -18 15 -18 17 0 8 8 3 21 -13z"/>
<path d="M3160 6396 c0 -2 7 -7 16 -10 8 -3 12 -2 9 4 -6 10 -25 14 -25 6z"/>
<path d="M3898 6303 c7 -3 16 -2 19 1 4 3 -2 6 -13 5 -11 0 -14 -3 -6 -6z"/>
<path d="M6305 2557 c1 -12 -1 -29 -5 -37 -4 -8 -4 -24 1 -35 6 -17 8 -15 8
11 1 17 4 34 8 38 12 12 11 34 -1 39 -8 3 -12 -3 -11 -16z"/>
<path d="M6285 2450 c-3 -6 1 -7 9 -4 18 7 21 14 7 14 -6 0 -13 -4 -16 -10z"/>
<path d="M6285 2420 c-3 -5 -1 -10 4 -10 6 0 11 5 11 10 0 6 -2 10 -4 10 -3 0
-8 -4 -11 -10z"/>
<path d="M6266 2333 c-6 -14 -5 -15 5 -6 7 7 10 15 7 18 -3 3 -9 -2 -12 -12z"/>
<path d="M5800 1335 c-7 -9 -11 -17 -9 -20 3 -2 10 5 17 15 14 24 10 26 -8 5z"/>
<path d="M5600 1080 c-9 -6 -10 -10 -3 -10 6 0 15 5 18 10 8 12 4 12 -15 0z"/>
<path d="M2838 23 c7 -3 16 -2 19 1 4 3 -2 6 -13 5 -11 0 -14 -3 -6 -6z"/>
</g>
</svg>
